<svg width="398" height="125" viewBox="0 0 398 125" fill="none" xmlns="http://www.w3.org/2000/svg">
<path fill-rule="evenodd" clip-rule="evenodd" d="M37.3541 58.5414H13.3958H13.3437C13.0202 58.5414 12.7376 58.6235 12.4233 58.7147C12.3834 58.7263 12.3431 58.738 12.302 58.7498C11.4687 55.4164 10.9479 51.9268 10.9479 48.1248C10.9479 22.8123 39.5937 4.84351 63.0312 29.3748C86.4687 5.05184 115.115 23.0206 115.115 48.3331C115.115 51.7185 114.75 54.9477 114.021 57.9685C113.708 57.8643 113.396 57.7602 113.031 57.7602H97.302L92.7187 52.2914C91.8854 51.3539 90.6875 50.8852 89.4895 50.8852C88.2916 50.9373 87.1458 51.5623 86.4687 52.6039L82.5625 58.4373L73.6562 44.3748C72.875 43.1248 71.5208 42.4477 70.0625 42.5518C68.6041 42.656 67.3541 43.5414 66.7812 44.8435L55.7916 69.6352L47.6145 54.0102C46.9895 52.8123 45.7916 52.031 44.4375 51.9268C43.0312 51.8227 41.7812 52.4477 41 53.5414L37.3541 58.5414ZM92.5106 64.0104C93.2398 64.8958 94.3335 65.4166 95.4794 65.4166H95.5314H111.469C105.597 78.3903 93.7961 87.5047 83.3003 95.6113C81.7875 96.7798 80.3018 97.9273 78.8648 99.0624C73.4481 103.333 68.2398 107.344 63.0314 107.344C57.8231 107.344 52.6148 103.333 47.1981 99.0624C45.8337 97.99 44.4269 96.9059 42.9956 95.8031C32.6801 87.8547 21.1 78.9319 15.0627 66.3541H39.4377C40.6877 66.3541 41.8856 65.7812 42.6148 64.7395L43.7085 63.2291L52.719 80.4166C53.396 81.7187 54.6981 82.4999 56.1565 82.4999H56.2606C57.771 82.4479 59.0731 81.5104 59.6981 80.1562L71.0002 54.6354L79.2294 67.552C79.9064 68.6979 81.1564 69.3749 82.4585 69.3749C83.7085 69.2187 85.0106 68.7499 85.7398 67.6562L90.1148 61.1458L92.5106 64.0104Z" fill="#E11D48"/>
<path d="M385.69 34.5875C385.542 32.9599 384.884 31.6948 383.715 30.7922C382.561 29.8748 380.911 29.4162 378.765 29.4162C377.345 29.4162 376.161 29.6011 375.214 29.971C374.267 30.3409 373.557 30.8514 373.084 31.5024C372.61 32.1387 372.366 32.8711 372.351 33.6997C372.322 34.3803 372.455 34.9796 372.751 35.4975C373.061 36.0153 373.505 36.474 374.082 36.8735C374.674 37.2582 375.384 37.5986 376.213 37.8945C377.042 38.1904 377.974 38.4494 379.009 38.6713L382.916 39.5591C385.165 40.0474 387.148 40.6984 388.864 41.5122C390.595 42.326 392.045 43.2952 393.214 44.4197C394.398 45.5442 395.293 46.8389 395.9 48.3038C396.506 49.7686 396.817 51.411 396.832 53.231C396.817 56.1015 396.092 58.5651 394.657 60.6218C393.221 62.6785 391.157 64.2543 388.464 65.3492C385.786 66.4441 382.553 66.9916 378.765 66.9916C374.963 66.9916 371.648 66.4219 368.822 65.2826C365.996 64.1433 363.799 62.4121 362.23 60.0891C360.662 57.7661 359.856 54.829 359.811 51.2778H370.331C370.42 52.7427 370.812 53.9634 371.508 54.9399C372.203 55.9165 373.157 56.6563 374.371 57.1594C375.599 57.6625 377.019 57.914 378.632 57.914C380.112 57.914 381.37 57.7143 382.405 57.3148C383.456 56.9153 384.262 56.3604 384.824 55.6502C385.387 54.9399 385.675 54.1261 385.69 53.2088C385.675 52.3506 385.409 51.6182 384.891 51.0115C384.373 50.3901 383.574 49.8574 382.494 49.4135C381.429 48.9548 380.067 48.5331 378.41 48.1484L373.661 47.0387C369.725 46.1361 366.625 44.6786 364.361 42.6663C362.097 40.6392 360.973 37.9019 360.987 34.4543C360.973 31.643 361.727 29.1794 363.251 27.0635C364.775 24.9476 366.884 23.2978 369.577 22.1141C372.27 20.9304 375.34 20.3386 378.788 20.3386C382.309 20.3386 385.365 20.9378 387.954 22.1363C390.558 23.32 392.578 24.9846 394.013 27.1301C395.448 29.2756 396.181 31.7614 396.21 34.5875H385.69Z" fill="#222A3D"/>
<path d="M337.02 20.96H347.985V50.2791C347.985 53.6675 347.178 56.6193 345.565 59.1347C343.953 61.6353 341.704 63.5737 338.818 64.9497C335.933 66.311 332.582 66.9916 328.764 66.9916C324.902 66.9916 321.529 66.311 318.643 64.9497C315.758 63.5737 313.516 61.6353 311.918 59.1347C310.32 56.6193 309.521 53.6675 309.521 50.2791V20.96H320.508V49.3247C320.508 50.8931 320.848 52.2914 321.529 53.5195C322.224 54.7476 323.193 55.7094 324.436 56.4048C325.679 57.1002 327.122 57.4479 328.764 57.4479C330.406 57.4479 331.842 57.1002 333.07 56.4048C334.313 55.7094 335.282 54.7476 335.977 53.5195C336.673 52.2914 337.02 50.8931 337.02 49.3247V20.96Z" fill="#222A3D"/>
<path d="M296.374 20.96V66.4146H285.388V20.96H296.374Z" fill="#222A3D"/>
<path d="M243.555 66.4146V20.96H254.541V57.4923H273.451V66.4146H243.555Z" fill="#222A3D"/>
<path d="M198.73 66.4146V20.96H230.424V29.8823H209.717V39.204H228.804V48.1484H209.717V57.4923H230.424V66.4146H198.73Z" fill="#222A3D"/>
<path d="M145.728 66.4146V20.96H156.714V39.204H174.625V20.96H185.589V66.4146H174.625V48.1484H156.714V66.4146H145.728Z" fill="#222A3D"/>
<path d="M376.204 95.4766C376.083 94.3459 375.574 93.4655 374.676 92.8354C373.787 92.2053 372.631 91.8903 371.206 91.8903C370.205 91.8903 369.346 92.0413 368.63 92.3434C367.914 92.6455 367.366 93.0555 366.986 93.5734C366.606 94.0913 366.412 94.6825 366.403 95.3471C366.403 95.8995 366.528 96.3785 366.779 96.7842C367.038 97.1899 367.387 97.5351 367.827 97.82C368.268 98.0962 368.755 98.3292 369.29 98.5191C369.825 98.709 370.365 98.8686 370.909 98.9981L373.395 99.6196C374.396 99.8526 375.358 100.168 376.282 100.565C377.214 100.962 378.047 101.462 378.78 102.067C379.523 102.671 380.11 103.4 380.541 104.255C380.973 105.109 381.189 106.11 381.189 107.258C381.189 108.812 380.791 110.18 379.997 111.362C379.203 112.536 378.055 113.455 376.554 114.12C375.06 114.776 373.252 115.104 371.129 115.104C369.066 115.104 367.275 114.785 365.756 114.146C364.245 113.507 363.063 112.575 362.208 111.349C361.363 110.124 360.905 108.631 360.836 106.87H365.562C365.631 107.793 365.916 108.562 366.416 109.174C366.917 109.787 367.568 110.245 368.371 110.547C369.182 110.849 370.089 111 371.09 111C372.134 111 373.049 110.844 373.835 110.534C374.629 110.214 375.25 109.774 375.699 109.213C376.148 108.644 376.377 107.979 376.385 107.219C376.377 106.529 376.174 105.959 375.777 105.51C375.38 105.053 374.823 104.673 374.107 104.371C373.399 104.06 372.57 103.784 371.621 103.542L368.604 102.766C366.42 102.205 364.694 101.354 363.425 100.215C362.165 99.0672 361.535 97.5438 361.535 95.6449C361.535 94.0826 361.958 92.7146 362.804 91.5407C363.658 90.3669 364.819 89.4563 366.287 88.8089C367.754 88.153 369.416 87.825 371.271 87.825C373.153 87.825 374.801 88.153 376.217 88.8089C377.641 89.4563 378.759 90.3582 379.57 91.5148C380.381 92.6628 380.8 93.9834 380.826 95.4766H376.204Z" fill="#222A3D"/>
<path d="M348.882 95.4766C348.761 94.3459 348.252 93.4655 347.354 92.8354C346.465 92.2053 345.308 91.8903 343.884 91.8903C342.883 91.8903 342.024 92.0413 341.308 92.3434C340.591 92.6455 340.043 93.0555 339.663 93.5734C339.284 94.0913 339.089 94.6825 339.081 95.3471C339.081 95.8995 339.206 96.3785 339.456 96.7842C339.715 97.1899 340.065 97.5351 340.505 97.82C340.945 98.0962 341.433 98.3292 341.968 98.5191C342.503 98.709 343.043 98.8686 343.586 98.9981L346.072 99.6196C347.073 99.8526 348.036 100.168 348.959 100.565C349.891 100.962 350.724 101.462 351.458 102.067C352.2 102.671 352.787 103.4 353.219 104.255C353.65 105.109 353.866 106.11 353.866 107.258C353.866 108.812 353.469 110.18 352.675 111.362C351.881 112.536 350.733 113.455 349.231 114.12C347.738 114.776 345.93 115.104 343.806 115.104C341.744 115.104 339.953 114.785 338.433 114.146C336.923 113.507 335.741 112.575 334.886 111.349C334.04 110.124 333.583 108.631 333.514 106.87H338.239C338.308 107.793 338.593 108.562 339.094 109.174C339.594 109.787 340.246 110.245 341.049 110.547C341.86 110.849 342.766 111 343.768 111C344.812 111 345.727 110.844 346.512 110.534C347.306 110.214 347.928 109.774 348.377 109.213C348.825 108.644 349.054 107.979 349.063 107.219C349.054 106.529 348.851 105.959 348.454 105.51C348.057 105.053 347.501 104.673 346.784 104.371C346.076 104.06 345.248 103.784 344.298 103.542L341.282 102.766C339.098 102.205 337.372 101.354 336.103 100.215C334.843 99.0672 334.213 97.5438 334.213 95.6449C334.213 94.0826 334.636 92.7146 335.482 91.5407C336.336 90.3669 337.497 89.4563 338.964 88.8089C340.432 88.153 342.093 87.825 343.949 87.825C345.83 87.825 347.479 88.153 348.895 88.8089C350.319 89.4563 351.436 90.3582 352.248 91.5148C353.059 92.6628 353.478 93.9834 353.504 95.4766H348.882Z" fill="#222A3D"/>
<path d="M308.68 114.703V88.1875H325.926V92.214H313.484V99.4125H325.032V103.439H313.484V110.676H326.029V114.703H308.68Z" fill="#222A3D"/>
<path d="M299.801 88.1875V114.703H295.528L283.034 96.6418H282.814V114.703H278.011V88.1875H282.309L294.79 106.261H295.023V88.1875H299.801Z" fill="#222A3D"/>
<path d="M253.715 114.703V88.1875H258.518V110.676H270.196V114.703H253.715Z" fill="#222A3D"/>
<path d="M229.419 114.703V88.1875H234.222V110.676H245.9V114.703H229.419Z" fill="#222A3D"/>
<path d="M203.628 114.703V88.1875H220.873V92.214H208.431V99.4125H219.98V103.439H208.431V110.676H220.976V114.703H203.628Z" fill="#222A3D"/>
<path d="M168.854 114.703L161.371 88.1875H166.537L171.314 107.673H171.56L176.661 88.1875H181.361L186.475 107.685H186.708L191.485 88.1875H196.651L189.168 114.703H184.429L179.121 96.0981H178.914L173.593 114.703H168.854Z" fill="#222A3D"/>
</svg>
